<svg width="51" height="44" viewBox="0 0 51 44" fill="none" xmlns="http://www.w3.org/2000/svg">
<path d="M44.4133 7.11539H37.2567L36.4233 4.63462C36.0217 3.43007 35.2473 2.38197 34.2104 1.6396C33.1735 0.897233 31.9269 0.498436 30.6483 0.500005H20.3517C19.0734 0.499035 17.8274 0.898091 16.7909 1.6404C15.7543 2.38271 14.9801 3.43047 14.5783 4.63462L13.7433 7.11539H6.58667C4.97292 7.11714 3.42578 7.75404 2.28469 8.88635C1.1436 10.0187 0.501765 11.5539 0.5 13.1552V37.4668C0.503528 39.067 1.14614 40.6005 2.28704 41.7314C3.42794 42.8623 4.97408 43.4983 6.58667 43.5H44.42C46.0326 43.4965 47.578 42.8588 48.7177 41.7267C49.8573 40.5946 50.4982 39.0603 50.5 37.4602V13.1486C50.4965 11.5484 49.8539 10.0149 48.713 8.88401C47.5721 7.75313 46.0259 7.11714 44.4133 7.11539ZM47.1667 37.4602C47.1658 38.1845 46.8754 38.8789 46.3593 39.3911C45.8431 39.9033 45.1433 40.1914 44.4133 40.1923H6.58667C5.85671 40.1914 5.1569 39.9033 4.64074 39.3911C4.12458 38.8789 3.83422 38.1845 3.83333 37.4602V13.1486C3.83598 12.4254 4.12712 11.7327 4.64309 11.2219C5.15906 10.7112 5.85786 10.424 6.58667 10.4231H14.945C15.2947 10.4228 15.6354 10.3134 15.9189 10.1104C16.2025 9.90741 16.4145 9.62104 16.525 9.29185L17.74 5.67489C17.9224 5.13086 18.273 4.65767 18.7418 4.3225C19.2106 3.98733 19.7739 3.80721 20.3517 3.8077H30.6483C31.2264 3.80707 31.79 3.98734 32.2589 4.32286C32.7277 4.65838 33.0781 5.13206 33.26 5.67654L34.475 9.29185C34.5855 9.62104 34.7975 9.90741 35.0811 10.1104C35.3646 10.3134 35.7053 10.4228 36.055 10.4231H44.4133C45.1433 10.424 45.8431 10.7121 46.3593 11.2243C46.8754 11.7365 47.1658 12.4309 47.1667 13.1552V37.4602Z" fill="white"/>
<path d="M25.5 12.0767C23.0277 12.0767 20.611 12.8041 18.5554 14.1671C16.4998 15.53 14.8976 17.4673 13.9515 19.7338C13.0054 22.0003 12.7579 24.4943 13.2402 26.9004C13.7225 29.3065 14.913 31.5166 16.6612 33.2513C18.4093 34.9861 20.6366 36.1674 23.0614 36.646C25.4861 37.1246 27.9995 36.879 30.2835 35.9402C32.5676 35.0013 34.5199 33.4115 35.8934 31.3717C37.2669 29.3319 38 26.9338 38 24.4805C37.9965 21.1919 36.6784 18.0389 34.3349 15.7135C31.9915 13.3881 28.8141 12.0802 25.5 12.0767ZM25.5 33.5767C23.687 33.5767 21.9147 33.0432 20.4073 32.0437C18.8998 31.0442 17.7249 29.6236 17.0311 27.9615C16.3373 26.2993 16.1558 24.4704 16.5095 22.7059C16.8632 20.9415 17.7362 19.3207 19.0182 18.0486C20.3002 16.7764 21.9335 15.9101 23.7117 15.5591C25.4898 15.2082 27.3329 15.3883 29.0079 16.0768C30.6829 16.7652 32.1146 17.9311 33.1218 19.427C34.1291 20.9228 34.6667 22.6815 34.6667 24.4805C34.664 26.8921 33.6974 29.2043 31.9789 30.9096C30.2604 32.6148 27.9303 33.574 25.5 33.5767Z" fill="white"/>
<path d="M42.1667 17.0384C43.0871 17.0384 43.8333 16.298 43.8333 15.3846C43.8333 14.4712 43.0871 13.7307 42.1667 13.7307C41.2462 13.7307 40.5 14.4712 40.5 15.3846C40.5 16.298 41.2462 17.0384 42.1667 17.0384Z" fill="white"/>
</svg>
