<svg width="22" height="22" viewBox="0 0 22 22" fill="none" xmlns="http://www.w3.org/2000/svg">
<path d="M15.2323 7.35036C15.59 7.01086 16.1545 7.02659 16.4932 7.38366C16.8324 7.74103 16.8172 8.3056 16.4599 8.64454L10.1275 14.6499C9.95475 14.8131 9.73415 14.8946 9.51355 14.8946C9.28104 14.8946 9.04914 14.8042 8.87464 14.625L5.54491 11.2063C5.20124 10.8534 5.20868 10.2889 5.56158 9.9452C5.91478 9.60119 6.47875 9.60893 6.82271 9.96183L9.53851 12.7502L15.2323 7.35036Z" fill="black"/>
<path fill-rule="evenodd" clip-rule="evenodd" d="M0 11C0 4.93453 4.93453 0 11 0C17.0655 0 22 4.93453 22 11C22 17.0655 17.0655 22 11 22C4.93453 22 0 17.0655 0 11ZM1.78376 11C1.78376 16.082 5.9183 20.2162 11 20.2162C16.082 20.2162 20.2162 16.082 20.2162 11C20.2162 5.91826 16.082 1.78376 11 1.78376C5.91826 1.78376 1.78376 5.9183 1.78376 11Z" fill="black"/>
</svg>
