<svg width="16" height="16" viewBox="0 0 16 16" fill="none" xmlns="http://www.w3.org/2000/svg">
<path fill-rule="evenodd" clip-rule="evenodd" d="M15.0711 0.928978C14.6805 0.538453 14.0474 0.538454 13.6569 0.928978L8 6.58583L2.34315 0.928977C1.95262 0.538453 1.31946 0.538453 0.928933 0.928977C0.538408 1.3195 0.538409 1.95267 0.928933 2.34319L6.58579 8.00004L0.928932 13.6569C0.538408 14.0474 0.538408 14.6806 0.928932 15.0711C1.31946 15.4616 1.95262 15.4616 2.34315 15.0711L8 9.41426L13.6569 15.0711C14.0474 15.4616 14.6805 15.4616 15.0711 15.0711C15.4616 14.6806 15.4616 14.0474 15.0711 13.6569L9.41421 8.00005L15.0711 2.34319C15.4616 1.95267 15.4616 1.3195 15.0711 0.928978Z" fill="#999999"/>
</svg>
