<svg width="18" height="22" viewBox="0 0 18 22" fill="none" xmlns="http://www.w3.org/2000/svg">
<rect x="0.700195" width="2.3" height="22" rx="1.15" fill="#242424"/>
<rect x="5.7002" y="10" width="2.3" height="12" rx="1.15" fill="#242424"/>
<path d="M10.7002 6.15C10.7002 5.51487 11.2151 5 11.8502 5C12.4853 5 13.0002 5.51487 13.0002 6.15V20.85C13.0002 21.4851 12.4853 22 11.8502 22C11.2151 22 10.7002 21.4851 10.7002 20.85V6.15Z" fill="#242424"/>
<path d="M15.7002 9.15C15.7002 8.51487 16.2151 8 16.8502 8C17.4853 8 18.0002 8.51487 18.0002 9.15V20.85C18.0002 21.4851 17.4853 22 16.8502 22C16.2151 22 15.7002 21.4851 15.7002 20.85V9.15Z" fill="#242424"/>
</svg>
