<svg width="22" height="22" viewBox="0 0 22 22" fill="none" xmlns="http://www.w3.org/2000/svg">
<path d="M21.1364 7.21823C21.6906 6.66397 22 5.92497 22 5.13869C22 4.35242 21.6949 3.61341 21.1364 3.05916L18.9451 0.867906C18.3866 0.305056 17.6476 0 16.8613 0C16.075 0 15.336 0.305056 14.7818 0.86361L1.11439 14.531C0.349602 15.2958 -0.0542754 16.3484 0.00587649 17.4269L0.00157992 20.9243C0.00157992 21.2079 0.113291 21.4828 0.315229 21.6848C0.517168 21.8867 0.787852 21.9984 1.07572 21.9984L4.57313 21.9941C5.65157 22.0543 6.70422 21.6504 7.46901 20.8856C7.89008 20.4645 7.89008 19.7857 7.46901 19.3646C7.04795 18.9436 6.36909 18.9436 5.94803 19.3646C5.6129 19.6998 5.14457 19.8759 4.67195 19.8458C4.65047 19.8458 4.62469 19.8415 4.6032 19.8415L2.14986 19.8501L2.15416 17.3968C2.15416 17.3753 2.15416 17.3495 2.14986 17.3281C2.11979 16.8554 2.29595 16.3871 2.63108 16.052L14.0213 4.66177L17.3382 7.97872L8.77947 16.5375C8.3584 16.9585 8.3584 17.6374 8.77947 18.0585C9.20053 18.4795 9.87939 18.4795 10.3005 18.0585L21.1364 7.21823ZM15.5423 3.14079L16.3028 2.3803C16.4531 2.22992 16.6508 2.14828 16.8656 2.14828C17.0761 2.14828 17.2781 2.22992 17.4285 2.3803L19.6197 4.57155C19.9291 4.8809 19.9291 5.38789 19.6197 5.69725L18.8592 6.45774L15.5423 3.14079Z" fill="white"/>
<path d="M20.926 19.8506H11.2372C10.6443 19.8506 10.1631 20.3318 10.1631 20.9247C10.1631 21.5177 10.6443 21.9989 11.2372 21.9989H20.926C21.5189 21.9989 22.0001 21.5177 22.0001 20.9247C22.0001 20.3318 21.5189 19.8506 20.926 19.8506Z" fill="white"/>
</svg>
