<svg width="27" height="22" viewBox="0 0 27 22" fill="none" xmlns="http://www.w3.org/2000/svg">
<path d="M19.6924 0C17.5296 0 15.6336 0.963659 14.2095 2.78685C14.0196 3.03001 13.8503 3.27327 13.7002 3.50887C13.5501 3.27322 13.3808 3.03001 13.1909 2.78685C11.7667 0.963659 9.87078 0 7.70801 0C3.62235 0 0.700195 3.4184 0.700195 7.5203C0.700195 12.2106 4.54723 16.631 13.1739 21.8532C13.3357 21.951 13.5179 22 13.7002 22C13.8824 22 14.0647 21.9511 14.2264 21.8532C22.8532 16.6311 26.7002 12.2107 26.7002 7.52035C26.7002 3.42058 23.7804 0 19.6924 0ZM21.9855 13.3606C20.1895 15.363 17.4755 17.4714 13.7002 19.7959C9.92486 17.4714 7.21086 15.363 5.41488 13.3606C3.6092 11.3473 2.73145 9.43696 2.73145 7.52035C2.73145 4.56691 4.72888 2.02972 7.70801 2.02972C9.22515 2.02972 10.5188 2.68887 11.5529 3.9889C12.3798 5.02857 12.7282 6.10214 12.7307 6.1098C12.863 6.53376 13.2558 6.82254 13.7002 6.82254C14.1447 6.82254 14.5375 6.53381 14.6698 6.1098C14.673 6.09955 15.011 5.05948 15.8107 4.03569C16.8505 2.7046 18.1565 2.02967 19.6924 2.02967C22.6747 2.02967 24.6689 4.5693 24.6689 7.5203C24.6689 9.43692 23.7912 11.3473 21.9855 13.3606Z" fill="#242424"/>
</svg>
