<svg width="22" height="22" viewBox="0 0 22 22" fill="none" xmlns="http://www.w3.org/2000/svg">
<path d="M21.5969 2.19876C21.3432 2.00996 21.0153 1.95236 20.7125 2.04323L14.469 3.91622L11.5166 2.14449C11.5159 2.14403 11.5153 2.14349 11.5146 2.14309L8.18124 0.142499C8.17644 0.139633 8.17151 0.137233 8.16671 0.134433C8.16524 0.133566 8.16371 0.132833 8.16231 0.131966C8.09584 0.0940994 8.02624 0.0642995 7.95464 0.0427662C7.95331 0.0423662 7.95204 0.0418995 7.95071 0.0414995C7.91591 0.0312329 7.88058 0.0230329 7.84498 0.0165663C7.84158 0.0158996 7.83818 0.0152996 7.83484 0.0147663C7.79971 0.0087663 7.76431 0.00463299 7.72884 0.00236633C7.72571 0.00216633 7.72264 0.00209966 7.71951 0.00189966C7.64498 -0.00203366 7.57011 0.00223299 7.49631 0.0149663C7.49511 0.015233 7.49398 0.0152996 7.49278 0.0154996C7.45644 0.0219663 7.42044 0.0306329 7.38478 0.0411662C7.38298 0.0416995 7.38111 0.0419662 7.37924 0.0424995L0.712598 2.04209C0.289666 2.16896 0 2.55829 0 2.99989V18.9998C0 19.3159 0.149466 19.6134 0.403065 19.8021C0.577665 19.932 0.787464 19.9998 1.00006 19.9998C1.09626 19.9998 1.193 19.986 1.28733 19.9576L7.53091 18.0846L13.8188 21.8573C13.8319 21.8652 13.8454 21.8722 13.8588 21.8795C13.8646 21.8826 13.8703 21.8861 13.8762 21.8891C13.8984 21.9005 13.9209 21.911 13.9436 21.9207C13.9491 21.923 13.9547 21.9249 13.9602 21.9271C13.9778 21.9342 13.9956 21.941 14.0135 21.9471C14.0217 21.9498 14.03 21.9522 14.0382 21.9548C14.0538 21.9596 14.0695 21.9642 14.0853 21.9682C14.0942 21.9704 14.1032 21.9725 14.112 21.9746C14.1276 21.9782 14.1434 21.9813 14.159 21.9841C14.1679 21.9856 14.1768 21.9872 14.1856 21.9886C14.2024 21.991 14.2194 21.993 14.2363 21.9946C14.244 21.9954 14.2516 21.9964 14.2594 21.997C14.284 21.9988 14.3086 21.9999 14.3333 21.9999H14.3334C14.3336 21.9999 14.3337 21.9999 14.3338 21.9999C14.3564 21.9999 14.379 21.999 14.4015 21.9974C14.4091 21.9969 14.4166 21.996 14.4243 21.9953C14.4394 21.9939 14.4546 21.9924 14.4697 21.9904C14.4786 21.9892 14.4873 21.9876 14.496 21.9862C14.51 21.9838 14.524 21.9814 14.5379 21.9785C14.5469 21.9766 14.5558 21.9745 14.5647 21.9724C14.5786 21.9691 14.5924 21.9654 14.6061 21.9616C14.611 21.9602 14.6158 21.9592 14.6207 21.9578L21.2873 19.9578C21.7103 19.8309 22 19.4416 22 19V3.00102C21.9999 2.68496 21.8505 2.38743 21.5969 2.19876ZM1.99999 3.74395L6.66665 2.34423V16.2558L1.99999 17.6558V3.74395ZM8.66664 2.76656L13.3333 5.56715V19.2336L8.66664 16.4336V2.76656ZM19.9999 18.2558L15.3333 19.6558V5.74502L19.9999 4.34502V18.2558Z" fill="white"/>
</svg>
