<svg width="22" height="22" viewBox="0 0 22 22" fill="none" xmlns="http://www.w3.org/2000/svg">
<path d="M19.5206 14.4041C18.886 13.9074 17.8667 13.2439 17.4447 13.0269C16.5466 12.5598 15.2962 12.623 14.4712 13.1777L14.4617 13.1842C13.9388 13.5486 13.4542 13.9651 13.0153 14.4273L13.0037 14.4393C12.9181 14.5303 12.8028 14.5878 12.6786 14.6015C12.5545 14.6152 12.4295 14.5842 12.3261 14.5141C11.3771 13.8675 10.4916 13.1323 9.68164 12.3183C8.86769 11.5085 8.13259 10.6232 7.48626 9.6743C7.41613 9.5712 7.38504 9.44647 7.39859 9.32251C7.41213 9.19854 7.46942 9.08347 7.56017 8.99794L7.57306 8.98505C8.03531 8.54622 8.45182 8.0616 8.81621 7.53866L8.82265 7.5292C9.3774 6.70417 9.44057 5.45372 8.97434 4.55778C8.75519 4.13409 8.09301 3.11482 7.59627 2.48014C7.10941 1.83558 6.30371 0.945226 5.96037 0.637985C5.19936 -0.0478279 3.95965 -0.202523 3.07617 0.27832L3.06543 0.284336C2.51857 0.595876 2.00585 0.963852 1.53567 1.38224L1.48754 1.42521C0.572697 2.21845 0.0600561 3.41862 0.00505357 4.89811C-0.0555352 6.52627 0.429605 8.44018 1.41106 10.4327C2.41571 12.4747 3.8982 14.5042 5.69825 16.3013C7.49829 18.0983 9.52565 19.5846 11.5676 20.5893C13.4497 21.5153 15.2614 22.0005 16.829 22.0005C16.9209 22.0005 17.012 21.9987 17.1023 21.9953C18.5817 21.9403 19.7819 21.4281 20.5743 20.5128L20.6173 20.4647C21.0357 19.9946 21.4037 19.4818 21.7152 18.9349L21.7212 18.9242C22.2016 18.0416 22.0478 16.8027 21.3632 16.0417C21.0556 15.6967 20.1656 14.891 19.5206 14.4041ZM20.2898 18.1387C20.0368 18.5828 19.7372 18.9986 19.396 19.3792L19.3449 19.436C18.8494 20.0118 18.0747 20.3229 17.0417 20.3616C15.7031 20.4105 14.0144 19.9727 12.2895 19.1236C10.407 18.1976 8.52787 16.8225 6.85416 15.1462C5.18045 13.4699 3.80281 11.5942 2.87894 9.71083C2.02769 7.98598 1.58981 6.29809 1.63708 4.95869C1.67576 3.9274 1.98686 3.15091 2.56267 2.65546L2.62111 2.60433C3.00233 2.26318 3.41877 1.96356 3.8634 1.71054C4.14829 1.55885 4.61624 1.62459 4.87063 1.85277C5.12502 2.08094 5.85036 2.87848 6.2964 3.46933L6.30628 3.48136C6.76435 4.06576 7.36036 4.99221 7.5245 5.30976C7.71486 5.67545 7.68908 6.28348 7.46993 6.6135C7.16952 7.04549 6.8252 7.44524 6.4425 7.80637L6.43648 7.81238C6.06418 8.16403 5.82939 8.63685 5.77427 9.14599C5.71914 9.65514 5.84728 10.1673 6.13569 10.5904C6.84052 11.625 7.64194 12.5903 8.52916 13.4733C9.41216 14.3607 10.3775 15.1621 11.4121 15.8668C11.8355 16.155 12.3478 16.2827 12.8569 16.2272C13.3661 16.1717 13.8388 15.9365 14.1901 15.5639L14.197 15.557C14.558 15.1747 14.9574 14.8307 15.389 14.5304C15.719 14.3113 16.3271 14.2855 16.6949 14.4771C17.0103 14.64 17.9367 15.2364 18.5211 15.6945L18.5332 15.704C19.1257 16.1504 19.9224 16.8775 20.1497 17.1314V17.1336C20.3766 17.3858 20.4415 17.8538 20.2898 18.1387Z" fill="white"/>
</svg>
