<svg width="12" height="18" viewBox="0 0 12 18" fill="none" xmlns="http://www.w3.org/2000/svg">
<path d="M4.40244 12.24C4.40244 11.5614 4.54878 10.9324 4.84146 10.3531C5.13415 9.7738 5.49187 9.27724 5.91463 8.86345C6.3374 8.4331 6.76016 8.02759 7.18293 7.6469C7.60569 7.24966 7.96341 6.82759 8.2561 6.38069C8.54878 5.91724 8.69512 5.43724 8.69512 4.94069C8.69512 4.24552 8.45935 3.71586 7.9878 3.35173C7.51626 2.97104 6.88211 2.78069 6.08537 2.78069C5.32114 2.78069 4.6626 2.97931 4.10976 3.37655C3.55691 3.77379 3.15854 4.33655 2.91463 5.06483L0.5 3.67448C0.955285 2.49931 1.68699 1.59724 2.69512 0.968277C3.71951 0.322759 4.87398 0 6.15854 0C7.60569 0 8.85772 0.422069 9.91463 1.26621C10.9715 2.11035 11.5 3.27724 11.5 4.7669C11.5 5.46207 11.3537 6.11586 11.061 6.72828C10.7683 7.32414 10.4106 7.83724 9.98781 8.26759C9.56504 8.69793 9.14228 9.12 8.71951 9.53379C8.29675 9.93104 7.93902 10.3614 7.64634 10.8248C7.35366 11.2883 7.20732 11.76 7.20732 12.24H4.40244ZM7.10976 17.4538C6.75203 17.8179 6.32114 18 5.81707 18C5.31301 18 4.88211 17.8179 4.52439 17.4538C4.16667 17.0897 3.98781 16.651 3.98781 16.1379C3.98781 15.6248 4.15854 15.1862 4.5 14.8221C4.85772 14.4579 5.29675 14.2759 5.81707 14.2759C6.32114 14.2759 6.75203 14.4579 7.10976 14.8221C7.46748 15.1862 7.64634 15.6248 7.64634 16.1379C7.64634 16.651 7.46748 17.0897 7.10976 17.4538Z" fill="#F0A721"/>
</svg>
