<svg width="22" height="22" viewBox="0 0 22 22" fill="none" xmlns="http://www.w3.org/2000/svg">
<path d="M10.6745 13.9186C10.0664 13.9186 9.57408 14.4254 9.57408 15.0335C9.57408 15.6272 10.0519 16.1484 10.6745 16.1484C11.2971 16.1484 11.7894 15.6272 11.7894 15.0335C11.7894 14.4254 11.2826 13.9186 10.6745 13.9186Z" fill="#999999"/>
<path d="M8.01027 7.41744C8.01027 6.63558 8.90798 5.47718 10.8627 5.47718C12.716 5.47718 13.9468 6.50521 13.9468 7.86625C13.9468 9.22728 12.716 10.2119 12.3251 10.516C11.5287 11.1386 11.5142 11.5729 11.5142 12.3258C11.5142 12.601 11.3694 12.9195 10.66 12.9195C10.0664 12.9195 9.86364 12.7023 9.86364 11.9494C9.86364 10.7042 10.4138 10.1105 10.8337 9.74858C10.9206 9.67489 11.0184 9.59977 11.1204 9.52148C11.5795 9.169 12.1224 8.75221 12.1224 8.11246C12.1224 7.4464 11.5432 7.12783 10.8193 7.12783C9.96441 7.12783 9.71108 7.50139 9.4977 7.81605C9.34244 8.04501 9.20833 8.24278 8.87901 8.24278C8.48808 8.24278 8.01027 7.98213 8.01027 7.41744Z" fill="#999999"/>
<path fill-rule="evenodd" clip-rule="evenodd" d="M11 0C4.92031 0 0 4.91975 0 11C0 17.0796 4.91975 22 11 22C17.0797 22 22 17.0802 22 11C22 4.92031 17.0802 0 11 0ZM11 20.4651C5.78093 20.4651 1.53489 16.2191 1.53489 11C1.53489 5.78089 5.78093 1.53489 11 1.53489C16.2191 1.53489 20.4651 5.78089 20.4651 11C20.4651 16.2191 16.2191 20.4651 11 20.4651Z" fill="#999999"/>
</svg>
