<svg width="23" height="22" viewBox="0 0 23 22" fill="none" xmlns="http://www.w3.org/2000/svg">
<path d="M22.3756 20.1169L19.2696 17.0219C20.9534 14.9418 21.7748 12.2949 21.5644 9.62693C21.354 6.959 20.1279 4.47352 18.1389 2.68299C16.1499 0.892459 13.5497 -0.0665919 10.8744 0.00359786C8.19915 0.0737877 5.65279 1.16787 3.76042 3.06023C1.86806 4.95259 0.773983 7.49895 0.703793 10.1742C0.633603 12.8495 1.59265 15.4497 3.38318 17.4387C5.17371 19.4277 7.6592 20.6538 10.3271 20.8642C12.995 21.0746 15.642 20.2532 17.7221 18.5694L20.8171 21.6754C20.9191 21.7782 21.0405 21.8599 21.1742 21.9156C21.308 21.9713 21.4514 22 21.5963 22C21.7412 22 21.8847 21.9713 22.0184 21.9156C22.1521 21.8599 22.2735 21.7782 22.3756 21.6754C22.4784 21.5733 22.5601 21.4519 22.6158 21.3182C22.6715 21.1845 22.7002 21.041 22.7002 20.8961C22.7002 20.7512 22.6715 20.6078 22.6158 20.4741C22.5601 20.3403 22.4784 20.2189 22.3756 20.1169ZM2.93871 10.4698C2.93871 8.84182 3.42147 7.25038 4.32594 5.89675C5.23041 4.54312 6.51596 3.4881 8.02003 2.86509C9.52411 2.24208 11.1791 2.07907 12.7759 2.39668C14.3726 2.71429 15.8393 3.49824 16.9904 4.64941C18.1416 5.80058 18.9255 7.26726 19.2432 8.86397C19.5608 10.4607 19.3977 12.1157 18.7747 13.6198C18.1517 15.1239 17.0967 16.4094 15.7431 17.3139C14.3894 18.2184 12.798 18.7011 11.17 18.7011C8.98694 18.7011 6.89327 17.8339 5.34961 16.2902C3.80594 14.7466 2.93871 12.6529 2.93871 10.4698Z" fill="#242424"/>
</svg>
