<svg width="22" height="22" viewBox="0 0 22 22" fill="none" xmlns="http://www.w3.org/2000/svg">
<path d="M16.5 11C14.8503 11 13.3741 11.7296 12.3662 12.8799L8.87509 10.7313C9.05384 10.2407 9.16685 9.71873 9.16685 9.16652C9.16685 8.80516 9.11512 8.45867 9.03622 8.12099L13.6768 5.97959C14.3489 6.79964 15.3568 7.33315 16.5003 7.33315C18.5243 7.33315 20.1668 5.69143 20.1668 3.66658C20.1668 1.64173 18.524 0 16.5 0C14.4743 0 12.8334 1.64173 12.8334 3.66658C12.8334 3.89018 12.8612 4.10711 12.8986 4.31831L8.26343 6.45783C7.42828 5.32646 6.097 4.58342 4.58337 4.58342C2.05176 4.58342 0 6.63491 0 9.16658C0 11.6982 2.05176 13.75 4.58342 13.75C5.90095 13.75 7.08098 13.186 7.91699 12.2944L11.4029 14.4394C11.1449 15.0766 11 15.7704 11 16.5C11 19.5382 13.4618 22 16.5 22C19.5365 22 22 19.5382 22 16.5C22 13.4618 19.5365 11 16.5 11ZM16.5 1.83342C17.5106 1.83342 18.3334 2.65515 18.3334 3.66685C18.3334 4.67828 17.5106 5.5 16.5 5.5C15.4894 5.5 14.6666 4.67828 14.6666 3.66658C14.6666 2.65515 15.4894 1.83342 16.5 1.83342ZM4.58342 11.9166C3.06679 11.9166 1.83342 10.6832 1.83342 9.16658C1.83342 7.65021 3.06679 6.41658 4.58342 6.41658C6.09979 6.41658 7.33342 7.65021 7.33342 9.16658C7.33342 10.6832 6.09979 11.9166 4.58342 11.9166ZM16.5 20.1666C14.4777 20.1666 12.8334 18.5224 12.8334 16.5C12.8334 14.4777 14.4776 12.8334 16.5 12.8334C18.5224 12.8334 20.1666 14.4776 20.1666 16.5C20.1666 18.5223 18.5223 20.1666 16.5 20.1666Z" fill="#242424"/>
</svg>
