<svg width="30" height="27" viewBox="0 0 30 27" fill="none" xmlns="http://www.w3.org/2000/svg">
<path d="M24.1509 27C23.9166 27 23.6838 26.9302 23.4842 26.794L15.941 21.6457L11.8952 24.5748C11.5779 24.8044 11.1689 24.8622 10.8005 24.7296C10.4325 24.5968 10.1531 24.2901 10.0533 23.9098L8.02188 16.1637L0.763357 13.3712C0.306405 13.1953 0.00335265 12.7554 2.76305e-05 12.2632C-0.00329739 11.7709 0.293738 11.3269 0.748474 11.1448L28.348 0.0948908C28.4733 0.0413619 28.6058 0.0104552 28.7394 0.00217101C28.7873 -0.000696608 28.8352 -0.000696521 28.8829 0.00201179C29.1597 0.0185802 29.4315 0.13201 29.6437 0.341347C29.6657 0.363013 29.6866 0.385157 29.7064 0.408258C29.8821 0.610265 29.9787 0.856562 29.9969 1.10748C30.0014 1.17057 30.0011 1.23445 29.9955 1.29833C29.9917 1.3439 29.9852 1.3893 29.976 1.43439L25.3174 26.0288C25.2425 26.4239 24.9752 26.7547 24.606 26.9087C24.4595 26.9699 24.3048 27 24.1509 27ZM16.6033 19.2101L23.3225 23.7959L26.9474 4.65871L13.8552 17.3345L16.5716 19.1886C16.5825 19.1955 16.593 19.2028 16.6033 19.2101ZM11.0098 18.1904L11.9095 21.6203L13.8478 20.217L11.3097 18.4846C11.1917 18.4043 11.0907 18.3043 11.0098 18.1904ZM4.45492 12.2327L9.43897 14.15C9.79601 14.2874 10.0655 14.5894 10.163 14.9613L10.7951 17.3715C10.8241 17.0935 10.9493 16.8319 11.1528 16.6348L23.6278 4.55675L4.45492 12.2327Z" fill="#F0A721"/>
</svg>
