<svg width="30" height="19" viewBox="0 0 30 19" fill="none" xmlns="http://www.w3.org/2000/svg">
<path d="M15.1811 19C19.521 19 17.9736 16.2159 18.3085 15.4153C18.3035 14.8175 18.2985 14.2424 18.3185 13.8928C18.5935 13.9713 19.2423 14.3045 20.5823 15.6243C22.651 17.7397 23.1797 19 24.851 19H27.9272C28.9022 19 29.4097 18.5909 29.6634 18.2476C29.9084 17.9157 30.1484 17.3331 29.8859 16.4261C29.1997 14.2424 25.1972 10.4715 24.9485 10.0738C24.986 10.0003 25.046 9.9028 25.0772 9.85213H25.0747C25.8647 8.79447 28.8797 4.21673 29.3234 2.38513C29.3247 2.3826 29.3259 2.3788 29.3259 2.375C29.5659 1.539 29.3459 0.996867 29.1184 0.690333C28.7759 0.2318 28.2309 0 27.4947 0H24.4185C23.3885 0 22.6073 0.525667 22.2123 1.48453C21.551 3.1882 19.6935 6.6918 18.301 7.93187C18.2585 6.175 18.2873 4.8336 18.3098 3.83673C18.3548 1.8924 18.4998 0 16.5086 0H11.6736C10.4261 0 9.2324 1.38067 10.5249 3.01973C11.6549 4.45613 10.9311 5.25667 11.1749 9.2416C10.2249 8.20927 8.53491 5.42133 7.33992 1.8582C7.00492 0.894267 6.49743 0.00126657 5.06869 0.00126657H1.99248C0.744992 0.00126657 0 0.690333 0 1.84427C0 4.43587 5.66119 19 15.1811 19ZM5.06869 1.90127C5.33994 1.90127 5.36744 1.90127 5.56869 2.48013C6.79243 6.13193 9.5374 11.5355 11.5424 11.5355C13.0486 11.5355 13.0486 9.9712 13.0486 9.3822L13.0474 4.693C12.9649 3.14133 12.4074 2.36867 12.0411 1.9L16.4261 1.90507C16.4286 1.9266 16.4011 7.09207 16.4386 8.34353C16.4386 10.1207 17.8311 11.1391 20.0048 8.90973C22.2985 6.28647 23.8847 2.36487 23.9485 2.20527C24.0422 1.97727 24.1235 1.9 24.4185 1.9H27.4947H27.5072C27.5059 1.9038 27.5059 1.9076 27.5047 1.9114C27.2235 3.2414 24.4472 7.47967 23.5185 8.79573C23.5035 8.816 23.4897 8.83753 23.476 8.85907C23.0672 9.53547 22.7348 10.2828 23.5322 11.3341C23.6047 11.4228 23.7947 11.6305 24.0697 11.9193C24.9247 12.8136 27.8572 15.8713 28.1172 17.0873C27.9447 17.1152 27.7572 17.0949 24.851 17.1013C24.2322 17.1013 23.7485 16.1639 21.9023 14.2766C20.2423 12.6401 19.1648 11.9713 18.1835 11.9713C16.2786 11.9713 16.4173 13.5381 16.4348 15.4331C16.4411 17.4876 16.4286 16.8378 16.4423 16.967C16.3311 17.0113 16.0123 17.1 15.1811 17.1C7.24992 17.1 2.08498 4.3434 1.88623 1.90507C1.95498 1.89873 2.90122 1.90253 5.06869 1.90127Z" fill="#F0A721"/>
</svg>
