<svg width="30" height="23" viewBox="0 0 30 23" fill="none" xmlns="http://www.w3.org/2000/svg">
<path fill-rule="evenodd" clip-rule="evenodd" d="M14.9839 16.5397C13.0444 17.6721 10.5469 16.323 10.5469 14.0826V8.88865C10.5469 6.64832 13.0444 5.29922 14.9839 6.43156L19.432 9.02854C21.3351 10.1396 21.3352 12.8316 19.432 13.9427L14.9839 16.5397ZM12.8906 14.0826C12.8906 14.505 13.3785 14.8007 13.7856 14.5631L18.2337 11.9661C18.6096 11.7466 18.6096 11.2246 18.2337 11.0052L13.7856 8.40819C13.3785 8.17054 12.8906 8.46628 12.8906 8.88865V14.0826Z" fill="#F0A721"/>
<path fill-rule="evenodd" clip-rule="evenodd" d="M15 23C11.2892 23 8.01353 22.7725 5.69499 22.5498C2.99914 22.2908 0.830988 20.258 0.450855 17.6239C0.210922 15.9611 0 13.8365 0 11.5C0 9.16346 0.21092 7.03887 0.450854 5.37613C0.830986 2.74202 2.99914 0.709222 5.69498 0.450233C8.01354 0.227496 11.2892 0 15 0C18.7108 0 21.9865 0.227496 24.305 0.450233C27.0009 0.709222 29.169 2.74201 29.5491 5.37611C29.7891 7.03886 30 9.16346 30 11.5C30 13.8365 29.7891 15.9611 29.5491 17.6239C29.169 20.258 27.0009 22.2908 24.305 22.5498C21.9865 22.7725 18.7108 23 15 23ZM5.92333 20.2607C8.186 20.4781 11.3832 20.7 15 20.7C18.6168 20.7 21.814 20.4781 24.0767 20.2607C25.6986 20.1049 27.0004 18.8826 27.2285 17.3014C27.4569 15.719 27.6562 13.7048 27.6562 11.5C27.6562 9.29519 27.4569 7.28105 27.2285 5.69861C27.0004 4.1174 25.6986 2.89511 24.0767 2.73929C21.814 2.52192 18.6168 2.3 15 2.3C11.3832 2.3 8.186 2.52192 5.92334 2.73929C4.30141 2.89511 2.99964 4.1174 2.77145 5.69861C2.5431 7.28105 2.34375 9.29519 2.34375 11.5C2.34375 13.7048 2.5431 15.719 2.77145 17.3014C2.99964 18.8826 4.30141 20.1049 5.92333 20.2607Z" fill="#F0A721"/>
</svg>
