<svg width="24" height="25" viewBox="0 0 24 25" fill="none" xmlns="http://www.w3.org/2000/svg">
<path d="M23.6593 12.9186C23.5376 12.4231 23.4118 11.9109 23.3473 11.3708C23.2969 10.9486 23.3632 10.4153 23.4334 9.85059C23.553 8.88791 23.6886 7.79685 23.2456 6.89309C22.6498 5.67804 21.8583 4.57245 20.893 3.6071C20.8929 3.60701 20.8928 3.60691 20.8927 3.60682C19.9275 2.64166 18.822 1.85022 17.607 1.25449C16.7033 0.811515 15.6121 0.947031 14.6495 1.0667C14.0849 1.13688 13.5516 1.20316 13.1292 1.15272C12.5893 1.08827 12.077 0.962453 11.5816 0.840719C10.4261 0.556796 9.23122 0.263264 7.82056 0.797031C6.60002 1.2588 5.79218 2.20793 5.01086 3.12574C4.70589 3.4841 4.39042 3.8546 4.05489 4.19018C3.81963 4.42549 3.52928 4.64267 3.22183 4.87264C2.66542 5.28889 2.09003 5.71925 1.71892 6.3463C1.15173 7.30456 1.12679 8.10903 1.1026 8.88707C1.09098 9.26062 1.07903 9.64696 1.00585 10.0713C0.932775 10.4951 0.759806 10.9656 0.576711 11.4636C0.232086 12.401 -0.124259 13.3703 0.0422413 14.3624C0.19571 15.277 0.659024 15.9327 1.1071 16.5668C1.33928 16.8953 1.55851 17.2057 1.74025 17.5549C1.90647 17.8744 2.04395 18.252 2.18954 18.6519C2.4797 19.4487 2.80858 20.3519 3.47838 21.0217C4.14822 21.6916 5.05141 22.0204 5.84834 22.3106C6.24818 22.4562 6.62581 22.5937 6.94526 22.7599C7.29448 22.9415 7.60479 23.1608 7.93334 23.393C8.56747 23.841 9.22316 24.3044 10.1378 24.4579C10.3113 24.487 10.484 24.5001 10.6561 24.5001C11.4678 24.5001 12.2631 24.2077 13.0365 23.9234C13.5345 23.7402 14.005 23.5674 14.4287 23.4943C14.853 23.4211 15.2393 23.4091 15.613 23.3974C16.391 23.3733 17.1955 23.3483 18.1537 22.7811C18.7808 22.41 19.2113 21.8346 19.6275 21.2782C19.8574 20.9708 20.0746 20.6804 20.3098 20.4452C20.6454 20.1096 21.0159 19.7942 21.3743 19.4892C22.2921 18.7079 23.2412 17.9001 23.703 16.6796C24.2367 15.2689 23.9432 14.0741 23.6593 12.9186ZM22.3828 16.18C22.0496 17.0607 21.3126 17.688 20.4594 18.4142C20.0798 18.7374 19.6873 19.0714 19.3117 19.447C19.0048 19.7539 18.7468 20.0989 18.4971 20.4326C18.1485 20.8986 17.8193 21.3388 17.4347 21.5665C16.7888 21.9488 16.2772 21.9647 15.5692 21.9866C15.1667 21.9992 14.7105 22.0133 14.1889 22.1033C13.6385 22.1982 13.0849 22.4018 12.5494 22.5986C11.7848 22.8797 10.9942 23.1701 10.3714 23.0658C9.77446 22.9656 9.29872 22.6295 8.74784 22.2402C8.39534 21.9911 8.03089 21.7335 7.59673 21.5077C7.19543 21.2988 6.75612 21.1389 6.33124 20.9842C5.6081 20.7209 4.92508 20.4723 4.47653 20.0237C4.02799 19.5751 3.77927 18.892 3.51597 18.169C3.36128 17.7441 3.2013 17.3048 2.99251 16.9035C2.76662 16.4693 2.50904 16.1048 2.25995 15.7523C1.8707 15.2014 1.53456 14.7257 1.43439 14.1288C1.3299 13.506 1.62057 12.7154 1.90164 11.9508C2.09851 11.4154 2.30204 10.8618 2.39697 10.3113C2.48692 9.78965 2.50108 9.33351 2.51359 8.93104C2.53558 8.22294 2.55147 7.7113 2.93378 7.0655C3.16136 6.68094 3.60152 6.35173 4.0675 6.00317C4.40125 5.75351 4.7463 5.49533 5.05319 5.18853C5.4288 4.81296 5.76288 4.42053 6.08595 4.04088C6.81228 3.18757 7.43956 2.45064 8.32025 2.11741C9.32056 1.73885 10.1698 1.94758 11.245 2.21172C11.7816 2.34358 12.3364 2.4798 12.9621 2.55452C13.555 2.6253 14.2 2.54514 14.8237 2.46761C15.628 2.36772 16.4599 2.26427 16.9857 2.52208C18.0609 3.04919 19.0397 3.75007 19.8948 4.60517C19.8948 4.60517 19.8949 4.60531 19.895 4.60535C20.7502 5.46059 21.4511 6.43939 21.9783 7.51461C22.2361 8.0405 22.1327 8.87226 22.0328 9.67668C21.9553 10.3004 21.8751 10.9453 21.9459 11.5383C22.0206 12.1639 22.1569 12.7188 22.2887 13.2554C22.5527 14.3305 22.7613 15.1797 22.3828 16.18Z" fill="#242424"/>
<path d="M12.1521 3.12195C7.05663 3.12195 2.91113 7.26744 2.91113 12.3629C2.91113 17.4584 7.05663 21.6039 12.1521 21.6039C17.2477 21.6039 21.3932 17.4584 21.3932 12.3629C21.3932 7.26744 17.2477 3.12195 12.1521 3.12195ZM12.1521 20.1924C7.83499 20.1924 4.32268 16.6802 4.32268 12.363C4.32268 8.04585 7.83494 4.5335 12.1521 4.5335C16.4693 4.5335 19.9816 8.04576 19.9816 12.3629C19.9816 16.6801 16.4693 20.1924 12.1521 20.1924Z" fill="#242424"/>
<path d="M12.1522 5.56226C8.40229 5.56226 5.35156 8.61298 5.35156 12.3629C5.35156 16.1127 8.40229 19.1634 12.1522 19.1634C15.902 19.1634 18.9528 16.1127 18.9528 12.3629C18.9528 8.61298 15.902 5.56226 12.1522 5.56226ZM12.1522 17.752C9.1806 17.752 6.76311 15.3345 6.76311 12.3629C6.76311 9.39139 9.1806 6.97385 12.1522 6.97385C15.1237 6.97385 17.5412 9.39134 17.5412 12.3629C17.5412 15.3345 15.1237 17.752 12.1522 17.752Z" fill="#242424"/>
<path d="M12.1521 8.99695C10.2961 8.99695 8.78613 10.5069 8.78613 12.3629C8.78613 14.2189 10.2961 15.7289 12.1521 15.7289C14.0081 15.7289 15.5181 14.2189 15.5181 12.3629C15.5181 10.5069 14.0081 8.99695 12.1521 8.99695ZM12.1521 14.3174C11.0744 14.3174 10.1977 13.4407 10.1977 12.363C10.1977 11.2853 11.0744 10.4086 12.1521 10.4086C13.2298 10.4086 14.1065 11.2853 14.1065 12.363C14.1065 13.4407 13.2298 14.3174 12.1521 14.3174Z" fill="#242424"/>
</svg>
