<svg width="20" height="23" viewBox="0 0 20 23" fill="none" xmlns="http://www.w3.org/2000/svg">
<path d="M19.6613 6.5293C19.4506 6.39618 19.1879 6.38403 18.9663 6.49732L10.3948 10.8827C10.1529 11.0066 10 11.2597 10 11.5365V21.769C10 22.0223 10.1282 22.2576 10.3388 22.3908C10.4535 22.4634 10.5837 22.4999 10.7143 22.4999C10.8235 22.4999 10.9329 22.4743 11.0338 22.4227L19.6052 18.0373C19.8472 17.9135 20 17.6605 20 17.3836V7.15111C20 6.89776 19.8718 6.6625 19.6613 6.5293ZM18.5714 16.9319L11.4286 20.5864V11.9883L18.5714 8.33379V16.9319Z" fill="#242424"/>
<path d="M19.285 4.93402C19.2757 4.6465 19.1021 4.39124 18.8418 4.28206L9.94897 0.554494C9.76932 0.479303 9.56745 0.481953 9.38968 0.56226L1.13967 4.28983C0.889134 4.40302 0.723955 4.65281 0.714312 4.93283C0.704669 5.21286 0.852437 5.47388 1.09458 5.60471L9.34459 10.0632C9.44887 10.1194 9.56343 10.1478 9.67816 10.1478C9.78566 10.1478 9.89325 10.123 9.99245 10.0732L18.8853 5.61476C19.138 5.48822 19.2944 5.22172 19.285 4.93402ZM9.69039 8.5969L3.06655 5.01725L9.68879 2.02515L16.829 5.01807L9.69039 8.5969Z" fill="#242424"/>
<path d="M8.91349 10.8948L1.05634 6.50941C0.83509 6.38607 0.566697 6.391 0.349643 6.52266C0.132857 6.65431 0 6.89322 0 7.15113V17.3837C0 17.6512 0.142768 17.8972 0.372232 18.0253L8.22938 22.4107C8.33608 22.4702 8.45385 22.4999 8.57144 22.4999C8.69769 22.4999 8.82376 22.4657 8.93608 22.3975C9.15287 22.2659 9.28572 22.027 9.28572 21.769V11.5365C9.28572 11.269 9.14295 11.023 8.91349 10.8948ZM2.0475 17.2952L7.85715 12.9718V14.9518L3.56786 18.1438L2.0475 17.2952ZM1.42857 13.9686L5.71795 10.7764L7.23822 11.6249L1.42857 15.9484V13.9686ZM4.33009 10.0018L1.42857 12.1611V8.38233L4.33009 10.0018ZM4.95572 18.9184L7.85715 16.7592V20.5378L4.95572 18.9184Z" fill="#242424"/>
</svg>
