<svg width="84" height="74" viewBox="0 0 84 74" fill="none" xmlns="http://www.w3.org/2000/svg">
<path fill-rule="evenodd" clip-rule="evenodd" d="M2.5 7.51746C1.39543 7.51746 0.5 6.62203 0.5 5.51746V2C0.5 0.895431 1.39543 0 2.5 0H39.4242C42.0076 0 44.1043 2.09345 44.1134 4.68181L44.1522 15.6579C44.1555 16.608 44.8308 17.4138 45.7429 17.6799C53.7405 20.0128 59.5847 27.4115 59.5847 36.1778C59.5847 44.8964 53.8039 52.2623 45.8731 54.6372C44.9629 54.9098 44.2934 55.7202 44.2968 56.6703L44.3244 64.4896C44.3283 65.5914 45.2225 66.4825 46.3244 66.4825H81.5C82.6046 66.4825 83.5 67.378 83.5 68.4825V72C83.5 73.1046 82.6046 74 81.5 74H41.5278C38.9444 74 36.8477 71.9065 36.8385 69.3182L36.7943 56.7626C36.7909 55.8033 36.103 54.9925 35.1791 54.7341C27.0768 52.4685 21.1328 45.0186 21.1328 36.1778C21.1328 27.3845 27.013 19.9673 35.0485 17.6585C35.9705 17.3936 36.6525 16.5779 36.6491 15.6187L36.6276 9.51041C36.6237 8.4086 35.7294 7.51746 34.6276 7.51746H2.5ZM28.6356 36.1778C28.6356 29.6906 33.8842 24.4317 40.3588 24.4317C46.8333 24.4317 52.0819 29.6906 52.0819 36.1778C52.0819 42.6649 46.8333 47.9238 40.3588 47.9238C33.8842 47.9238 28.6356 42.6649 28.6356 36.1778Z" fill="#F0A721"/>
<path fill-rule="evenodd" clip-rule="evenodd" d="M47.9253 29.8635C48.7445 30.6022 48.8109 31.8647 48.0738 32.6853L37.287 44.694C36.5478 45.5169 35.2812 45.5836 34.4597 44.8428L31.8535 42.4927C31.0343 41.754 30.9679 40.4915 31.705 39.6709L42.4918 27.6622C43.2309 26.8393 44.4976 26.7726 45.3191 27.5134L47.9253 29.8635Z" fill="#EB8030"/>
</svg>
