<svg width="34" height="34" viewBox="0 0 34 34" fill="none" xmlns="http://www.w3.org/2000/svg">
<path d="M34 17.0004L29.7698 18.9926L24.9689 17.0004C24.9689 14.809 24.0724 12.8169 22.6381 11.3624L23.8578 6.15837L28.9731 5.02734C32.041 8.09537 34 12.3386 34 17.0004Z" fill="#E64560"/>
<path d="M28.9731 28.973L23.9873 27.9716L22.6381 22.6379C24.0724 21.1835 24.9689 19.1913 24.9689 17H34C34 21.6618 32.041 25.905 28.9731 28.973Z" fill="#66B3FF"/>
<path d="M16.9997 33.9997L15.0076 29.6742L16.9997 24.9685C19.1912 24.9685 21.1833 24.072 22.6376 22.6377L28.9727 28.9728C25.9047 32.0407 21.6614 33.9997 16.9997 33.9997Z" fill="#4D88FF"/>
<path d="M17 33.9997C12.3384 33.9997 8.09512 32.0407 5.02713 28.9728L6.5494 23.4662L11.3623 22.6377C12.8165 24.072 14.8087 24.9685 17 24.9685V33.9997Z" fill="#7ACC52"/>
<path d="M5.02717 28.973C1.95925 25.905 0.000290871 21.6618 0.000290871 17L4.65072 15.0078L9.03141 17C9.03141 19.1913 9.92788 21.1835 11.3623 22.6379L5.02717 28.973Z" fill="#ADE65C"/>
<path d="M9.03135 17.0004H0.000226021C0.000226021 12.3386 1.95918 8.09537 5.02711 5.02734L10.19 6.20585L11.3623 11.3625C9.92782 12.8169 9.03135 14.809 9.03135 17.0004Z" fill="#FFEA80"/>
<path d="M11.3623 11.362L5.02716 5.02695C8.09515 1.95898 12.3384 0 17 0L18.9922 4.76225L17 9.03124C14.8087 9.03124 12.8166 9.92772 11.3623 11.362Z" fill="#FFCB66"/>
<path d="M22.6377 11.362C21.1834 9.92772 19.1912 9.03124 16.9998 9.03124V0C21.6615 0 25.9048 1.95898 28.9727 5.02695L22.6377 11.362Z" fill="#FF6666"/>
</svg>
