<svg width="72" height="72" viewBox="0 0 72 72" fill="none" xmlns="http://www.w3.org/2000/svg">
<path d="M16.6829 8.78051H3.5122C1.57246 8.78051 0 10.353 0 12.2927V13.1708C0 15.1105 1.57246 16.683 3.51219 16.683H16.6829C16.6829 4.75968 16.6829 8.78051 16.6829 8.78051Z" fill="#F0A721"/>
<path d="M68 64.0976C70.2091 64.0976 72 65.8884 72 68.0976V68.4878C72 70.4276 70.4275 72 68.4878 72H12.2927C10.353 72 8.78049 70.4276 8.78049 68.4878V27.2195C8.78049 25.7647 9.95984 24.5854 11.4146 24.5854H14.0488C15.5036 24.5854 16.6829 25.7647 16.6829 27.2195V62.3415C16.6829 63.3114 17.4692 64.0976 18.439 64.0976C34.9604 64.0976 51.4831 64.0976 68 64.0976Z" fill="#F0A721"/>
<path d="M16.6827 2.63415C16.6827 1.17935 15.5034 0 14.0486 0H11.4144C9.95962 0 8.78027 1.17935 8.78027 2.63415V8.78049H16.6827V2.63415Z" fill="#EB8030"/>
</svg>
