<svg width="16" height="16" viewBox="0 0 16 16" fill="none" xmlns="http://www.w3.org/2000/svg">
<path d="M3.12195 0C3.44524 0 3.70732 0.262077 3.70732 0.585366V1.95122C3.70732 1.95122 -1.13266 1.95122 1.95122 1.95122V0.585366C1.95122 0.262077 2.2133 0 2.53658 0H3.12195Z" fill="#EB8030"/>
<path d="M15.2195 1.95117C15.6506 1.95117 16 2.30061 16 2.73166V15.2195C16 15.6505 15.6506 16 15.2195 16H2.73171C2.30066 16 1.95122 15.6505 1.95122 15.2195V6.04873C1.95122 5.72544 2.2133 5.46337 2.53659 5.46337H3.12195C3.44524 5.46337 3.70732 5.72544 3.70732 6.04873V13.8536C3.70732 14.0691 3.88204 14.2439 4.09756 14.2439H13.8537C14.0692 14.2439 14.2439 14.0691 14.2439 13.8536V4.09751C14.2439 3.88199 14.0692 3.70727 13.8537 3.70727H0.780488C0.349436 3.70727 0 3.35783 0 2.92678V2.73166C0 2.30061 0.349436 1.95117 0.780488 1.95117C3.67954 1.95117 8.94952 1.95117 15.2195 1.95117Z" fill="#F0A721"/>
</svg>
