<svg width="20" height="20" viewBox="0 0 20 20" fill="none" xmlns="http://www.w3.org/2000/svg">
<path d="M17.0998 2.87425C15.1998 1.03761 12.6998 0.00012207 10.0374 0.00012207C2.3958 0.00012207 -2.40247 8.27919 1.41332 14.8649L0 19.9999L5.2791 18.6232C7.57907 19.8657 9.46322 19.7557 10.0424 19.829C18.9031 19.829 23.3139 9.10918 17.0873 2.90675L17.0998 2.87425Z" fill="white"/>
<path d="M10.0556 18.1257L10.0506 18.1249H10.0373C7.38567 18.1249 5.69152 16.8691 5.52486 16.7966L2.39989 17.6091L3.23738 14.5716L3.03822 14.2591C2.21323 12.9458 1.7749 11.4333 1.7749 9.87585C1.7749 2.54844 10.729 -1.11568 15.9106 4.06342C21.0797 9.18835 17.4505 18.1257 10.0556 18.1257Z" fill="#4AD504"/>
<path d="M14.5892 11.9225L14.5817 11.985C14.3308 11.86 13.1092 11.2625 12.8817 11.18C12.3709 10.9908 12.515 11.15 11.5342 12.2733C11.3884 12.4358 11.2434 12.4483 10.9959 12.3358C10.7459 12.2108 9.94339 11.9483 8.9934 11.0983C8.25341 10.4358 7.75675 9.62334 7.61008 9.37334C7.36592 8.95168 7.87675 8.89168 8.34174 8.01169C8.42507 7.8367 8.38257 7.6992 8.32091 7.57503C8.25841 7.45003 7.76091 6.22505 7.55258 5.73672C7.35259 5.25006 7.14675 5.31173 6.99259 5.31173C6.5126 5.27006 6.16177 5.27673 5.8526 5.59839C4.50762 7.0767 4.84678 8.60169 5.9976 10.2233C8.25924 13.1833 9.46423 13.7283 11.6675 14.4849C12.2625 14.6741 12.805 14.6474 13.2342 14.5858C13.7125 14.5099 14.7067 13.985 14.9142 13.3975C15.1267 12.81 15.1267 12.3225 15.0642 12.21C15.0025 12.0975 14.8392 12.035 14.5892 11.9225Z" fill="white"/>
</svg>
