<svg width="70" height="82" viewBox="0 0 70 82" fill="none" xmlns="http://www.w3.org/2000/svg">
<path fill-rule="evenodd" clip-rule="evenodd" d="M17.0213 0.416977C17.8885 0.000260547 18.8114 -0.0745045 19.6676 0.128747C20.5158 -0.0576068 21.4251 0.0278246 22.2772 0.445208C24.5339 1.55063 26.0776 1.93935 27.4195 1.93626C28.7538 1.93319 30.2158 1.54223 32.3142 0.485941C34.8736 -0.802434 37.9958 0.928497 38.3761 4.06745C38.4015 4.27671 38.4146 4.49223 38.4146 4.71353V64.3128C38.4146 65.9042 37.6642 67.3933 36.4195 68.2447C33.2393 70.42 30.2049 71.9741 26.9723 71.9996C24.2235 72.0214 21.7933 70.9434 19.4274 69.2443C16.6356 70.8953 13.9577 71.9782 11.1596 71.9996C7.74854 72.0257 4.78329 70.4809 1.76938 68.1174C0.649148 67.2389 0 65.8307 0 64.3523V4.65816C0 1.63847 2.48254 -0.354827 4.94037 0.052771C5.29148 0.110999 5.6421 0.218225 5.9849 0.378456C8.42882 1.52079 10.1296 1.93987 11.6351 1.93626C13.1332 1.93266 14.7469 1.50992 17.0213 0.416977ZM11.1116 31.0905C9.98408 31.0991 8.70698 30.7105 6.82927 29.4036V8.60739C8.4469 9.1062 10.0292 9.37819 11.6501 9.3743C13.2137 9.37054 14.7147 9.1103 16.2195 8.64773V29.2053C13.8639 30.6022 12.3388 31.0811 11.1116 31.0905ZM31.5854 8.7198V29.2628C29.3797 30.6402 27.9967 31.082 26.9227 31.0905C25.9516 31.0982 24.804 30.7504 23.0488 29.4632V8.6799C24.5095 9.13069 25.9524 9.37771 27.4339 9.3743C28.859 9.37103 30.2261 9.13624 31.5854 8.7198ZM26.9723 38.5284C25.5951 38.5392 24.298 38.2741 23.0488 37.7932V62.9344C24.804 64.2216 25.9516 64.5694 26.9227 64.5618C27.9967 64.5533 29.3797 64.1114 31.5854 62.7341V37.5118C30.0682 38.1424 28.5437 38.5159 26.9723 38.5284ZM16.2195 37.4077V62.6766C13.8639 64.0735 12.3388 64.5524 11.1116 64.5618C9.98408 64.5704 8.70698 64.1818 6.82927 62.8749V37.6971C8.21352 38.2408 9.64245 38.54 11.1596 38.5284C12.8734 38.5152 14.5421 38.1039 16.2195 37.4077Z" fill="#F0A721"/>
<path fill-rule="evenodd" clip-rule="evenodd" d="M53.8626 0.445208C51.1285 -0.894035 47.8049 1.18435 47.8049 4.69272V64.3674C47.8049 65.8029 48.4172 67.1765 49.4856 68.0609C52.3435 70.4263 55.215 72.0261 58.5576 71.9996C61.7903 71.9741 64.8247 70.42 68.0048 68.2447C69.2495 67.3933 70 65.9042 70 64.3128V4.71353C70 4.49223 69.9868 4.27671 69.9615 4.06745C69.5812 0.928497 66.459 -0.802434 63.8996 0.485941C61.8012 1.54223 60.3391 1.93319 59.0049 1.93626C57.663 1.93935 56.1193 1.55063 53.8626 0.445208ZM58.5081 31.0905C57.537 31.0982 56.3894 30.7504 54.6341 29.4632V8.6799C56.0949 9.13069 57.5378 9.37771 59.0193 9.3743C60.4444 9.37103 61.8114 9.13624 63.1707 8.7198V29.2628C60.965 30.6402 59.5821 31.082 58.5081 31.0905ZM63.1707 37.5118C61.6535 38.1424 60.129 38.5159 58.5576 38.5284C57.1805 38.5392 55.8833 38.2741 54.6341 37.7932V62.9344C56.3894 64.2216 57.537 64.5694 58.5081 64.5618C59.5821 64.5533 60.965 64.1114 63.1707 62.7341V37.5118Z" fill="#F0A721"/>
<path fill-rule="evenodd" clip-rule="evenodd" d="M36.5253 10.0528C34.0675 9.64517 31.585 11.6385 31.585 14.6582V74.3523C31.585 75.8307 32.2341 77.2389 33.3543 78.1174C36.3682 80.4809 39.3335 82.0257 42.7445 81.9996C46.0525 81.9743 49.1924 80.4654 52.5511 78.2883C53.8447 77.4499 54.6337 75.9303 54.6337 74.298V14.6776C54.6337 11.1918 51.3426 9.10206 48.6063 10.417C46.3318 11.5099 44.7181 11.9327 43.22 11.9363C41.7146 11.9399 40.0138 11.5208 37.5699 10.3785C37.2271 10.2182 36.8764 10.111 36.5253 10.0528ZM42.6965 41.0905C41.569 41.0991 40.2919 40.7105 38.4142 39.4036V18.6074C40.0319 19.1062 41.6142 19.3782 43.2351 19.3743C44.7986 19.3705 46.2997 19.1103 47.8045 18.6477V39.2053C45.4489 40.6022 43.9238 41.0811 42.6965 41.0905ZM47.8045 47.4077C46.1271 48.1039 44.4584 48.5152 42.7445 48.5284C41.2274 48.54 39.7985 48.2408 38.4142 47.6971V72.8749C40.2919 74.1818 41.569 74.5704 42.6965 74.5618C43.9238 74.5524 45.4489 74.0735 47.8045 72.6766V47.4077Z" fill="#EB8030"/>
</svg>
