<svg width="81" height="80" viewBox="0 0 81 80" fill="none" xmlns="http://www.w3.org/2000/svg">
<path fill-rule="evenodd" clip-rule="evenodd" d="M41.7096 27.3249C40.8167 26.8167 39.7259 26.8008 38.8185 27.2828L11.1374 41.9861C9.7136 42.7424 7.9467 42.2381 7.13647 40.8444L6.35692 39.5034C5.50249 38.0336 6.03898 36.1481 7.53923 35.3484L37.8946 19.1657C39.3535 18.3245 41.1514 18.3195 42.615 19.1524L78.1149 39.3552C79.5898 40.1945 80.5 41.7566 80.5 43.4484V55.0865C80.5 56.7688 79.5999 58.3236 78.138 59.1664L43.1054 79.3657C41.6465 80.2068 39.8486 80.2119 38.385 79.3789L2.88514 59.1762C1.41022 58.3368 0.5 56.7747 0.5 55.0829V52.5014C0.5 50.8445 1.84315 49.5014 3.5 49.5014H5.58265C6.95856 49.5014 8.07396 50.6168 8.07396 51.9927C8.07396 52.8883 8.55468 53.715 9.33305 54.158L39.2308 71.1726C40.156 71.6991 41.2909 71.6959 42.2131 71.1642L71.4245 54.3214C72.3536 53.7857 72.926 52.7948 72.926 51.7224V46.8344C72.926 45.756 72.3472 44.7605 71.4099 44.2271L41.7096 27.3249Z" fill="#F0A721"/>
<rect x="17.0684" width="7.57396" height="44.3153" rx="3" fill="#EB8030"/>
<rect x="56.8311" width="7.57396" height="44.3153" rx="3" fill="#EB8030"/>
<rect x="36.9497" width="7.57396" height="53.7441" rx="3" fill="#EB8030"/>
</svg>
