<svg width="74" height="70" viewBox="0 0 74 70" fill="none" xmlns="http://www.w3.org/2000/svg">
<path d="M16.5426 1.26221C17.9976 1.26221 19.1771 2.45435 19.1771 3.92494V10.138C19.1771 10.138 -2.60516 10.138 11.2738 10.138V3.92493C11.2738 2.45435 12.4533 1.26221 13.9082 1.26221H16.5426Z" fill="#EB8030"/>
<path fill-rule="evenodd" clip-rule="evenodd" d="M42.2673 0.215464C42.7191 0.0763365 43.2056 0.101778 43.6405 0.287274L72.7847 12.7188C73.5217 13.0332 74 13.7571 74 14.5584V68C74 69.1046 73.1046 70 72 70H13.4933C12.3887 70 11.4933 69.1046 11.4933 68V24.9954C11.4933 23.8909 12.3887 22.9954 13.4933 22.9954H17.4941C18.5987 22.9954 19.4941 23.8909 19.4941 24.9955V59.9132C19.4941 61.0178 20.3896 61.9132 21.4941 61.9132H63.9991C65.1037 61.9132 65.9991 61.0178 65.9991 59.9132V19.9231C65.9991 19.1218 65.5209 18.3978 64.7838 18.0834L43.1997 8.87671C42.7649 8.69121 42.2783 8.66577 41.8265 8.8049L4.25442 20.3736C3.19431 20.7001 2.07106 20.1014 1.75096 19.0394L0.573724 15.1334C0.256314 14.0803 0.848876 12.9685 1.90009 12.6448L42.2673 0.215464Z" fill="#F0A721"/>
</svg>
