<svg width="72" height="72" viewBox="0 0 72 72" fill="none" xmlns="http://www.w3.org/2000/svg">
<path d="M14.0484 5.34058e-05C15.5032 5.34058e-05 16.6826 1.1794 16.6826 2.6342V8.78054C16.6826 8.78054 -5.09733 8.78054 8.78012 8.78054V2.6342C8.78012 1.1794 9.95947 5.34058e-05 11.4143 5.34058e-05H14.0484Z" fill="#EB8030"/>
<path d="M68.4878 8.78051C70.4275 8.78051 72 10.353 72 12.2927V68.4878C72 70.4276 70.4275 72 68.4878 72H12.2927C10.353 72 8.78049 70.4276 8.78049 68.4878V27.2195C8.78049 25.7647 9.95984 24.5854 11.4146 24.5854H14.0488C15.5036 24.5854 16.6829 25.7647 16.6829 27.2195V62.3415C16.6829 63.3114 17.4692 64.0976 18.439 64.0976H62.3415C63.3113 64.0976 64.0976 63.3114 64.0976 62.3415V18.439C64.0976 17.4692 63.3113 16.6829 62.3415 16.6829H3.51219C1.57246 16.6829 0 15.1105 0 13.1708V12.2927C0 10.353 1.57246 8.78051 3.5122 8.78051C16.5579 8.78051 40.2728 8.78051 68.4878 8.78051Z" fill="#F0A721"/>
</svg>
