<svg width="70" height="72" viewBox="0 0 70 72" fill="none" xmlns="http://www.w3.org/2000/svg">
<path fill-rule="evenodd" clip-rule="evenodd" d="M55.5743 0.0633781C53.4012 -0.318241 51.3172 1.06282 50.9195 3.14806L47.4979 21.0892C14.4758 21.0892 37.6917 21.0892 7.74205 21.0892C5.53291 21.0892 3.74205 22.8077 3.74205 24.9276C3.74205 27.0475 5.53291 28.766 7.74205 28.766H17.2947L14.4697 43.5789H4C1.79086 43.5789 0 45.2974 0 47.4172C0 49.5371 1.79086 51.2556 4 51.2556H13.0056L9.91327 67.47C9.51558 69.5552 10.9548 71.555 13.1278 71.9366C15.3009 72.3183 17.3849 70.9372 17.7826 68.8519L21.1385 51.2556H41.7447L38.6554 67.4541C38.2577 69.5394 39.6969 71.5392 41.8699 71.9208C44.043 72.3024 46.127 70.9213 46.5247 68.8361L49.8775 51.2556H62.2581C64.4672 51.2556 66.2581 49.5371 66.2581 47.4172C66.2581 45.2974 64.4672 43.5789 62.2581 43.5789H51.3416L54.1667 28.766H66.0001C68.2093 28.766 70.0001 27.0475 70.0001 24.9276C70.0001 22.8077 68.2093 21.0892 66.0001 21.0892H55.6307L58.7888 4.53002C59.1865 2.44478 57.7473 0.444997 55.5743 0.0633781ZM22.6025 43.5789L25.4276 28.766H46.0338L43.2087 43.5789H22.6025Z" fill="#F0A721"/>
<path d="M26.8917 21.0892L30.0467 4.54586C30.4444 2.46061 29.0052 0.460834 26.8322 0.0792166C24.6591 -0.302403 22.5751 1.07866 22.1774 3.1639L18.7588 21.0892H26.8917Z" fill="#EB8030"/>
</svg>
