<svg width="16" height="16" viewBox="0 0 16 16" fill="none" xmlns="http://www.w3.org/2000/svg">
<path d="M3.70732 1.95112H0.780488C0.349436 1.95112 0 2.30055 0 2.7316V2.92673C0 3.35778 0.349436 3.70721 0.780488 3.70721H3.70732C3.70732 1.0576 3.70732 1.95112 3.70732 1.95112Z" fill="#F0A721"/>
<path d="M15.1111 14.2438C15.602 14.2438 16 14.6418 16 15.1327V15.2194C16 15.6505 15.6506 15.9999 15.2195 15.9999H2.73171C2.30066 15.9999 1.95122 15.6505 1.95122 15.2194V6.04868C1.95122 5.72539 2.2133 5.46331 2.53659 5.46331H3.12195C3.44524 5.46331 3.70732 5.72539 3.70732 6.04868V13.8536C3.70732 14.0691 3.88204 14.2438 4.09756 14.2438C7.76898 14.2438 11.4407 14.2438 15.1111 14.2438Z" fill="#F0A721"/>
<path d="M3.70727 0.585366C3.70727 0.262077 3.44519 0 3.1219 0H2.53654C2.21325 0 1.95117 0.262077 1.95117 0.585366V1.95122H3.70727V0.585366Z" fill="#EB8030"/>
</svg>
