<svg width="41" height="40" viewBox="0 0 41 40" fill="none" xmlns="http://www.w3.org/2000/svg">
<path d="M34.1738 3.77573L34.1739 3.77574C35.4633 4.00658 36.4926 5.03583 36.7234 6.32527L36.7234 6.32533L38.45 15.9679C38.45 15.9681 38.45 15.9684 38.4501 15.9686C38.6315 16.9848 38.3041 18.0273 37.5746 18.7568L19.2573 37.0741C18.6584 37.673 17.8722 37.9983 17.0257 37.9983H16.9212C16.1154 37.9726 15.3688 37.6498 14.7941 37.0758C14.7939 37.0756 14.7937 37.0754 14.7935 37.0752L3.4242 25.7059C2.82537 25.1071 2.5 24.3209 2.5 23.4743C2.5 22.6285 2.82571 21.8417 3.4248 21.2421L21.7424 2.92459C22.4714 2.19553 23.5087 1.86747 24.5317 2.04929C24.532 2.04934 24.5323 2.04939 24.5326 2.04944L34.1738 3.77573Z" stroke="#F0A721" stroke-width="4"/>
<path d="M28.1664 15.3339C29.8233 15.3339 31.1664 13.9907 31.1664 12.3339C31.1664 10.6771 29.8233 9.33398 28.1664 9.33398C26.5096 9.33398 25.1665 10.6771 25.1665 12.3339C25.1665 13.9907 26.5096 15.3339 28.1664 15.3339Z" fill="#EB8030"/>
</svg>
